<svg width="40" height="40" viewBox="0 0 40 40" fill="none" xmlns="http://www.w3.org/2000/svg">
<g filter="url(#filter0_di)">
<path d="M4 16C4 24.8366 11.1634 32 20 32C28.8366 32 36 24.8366 36 16C36 7.16344 28.8366 0 20 0C11.1634 0 4 7.16344 4 16Z" fill="url(#paint0_linear)" shape-rendering="crispEdges"/>
<path d="M20 31.5C11.4396 31.5 4.5 24.5604 4.5 16C4.5 7.43959 11.4396 0.5 20 0.5C28.5604 0.5 35.5 7.43959 35.5 16C35.5 24.5604 28.5604 31.5 20 31.5Z" stroke="#FF6B00" shape-rendering="crispEdges"/>
</g>
<path d="M27.6 12.1C27.4 11.4 26.9 10.9 26.2 10.7C25 10.4 19.9 10.4 19.9 10.4C19.9 10.4 14.9 10.4 13.6 10.7C12.9 10.9 12.4 11.4 12.2 12.1C12 13.4 12 16 12 16C12 16 12 18.6 12.3 19.9C12.5 20.6 13 21.1 13.7 21.3C14.9 21.6 20 21.6 20 21.6C20 21.6 25 21.6 26.3 21.3C27 21.1 27.5 20.6 27.7 19.9C28 18.6 28 16 28 16C28 16 28 13.4 27.6 12.1ZM18.4 18.4V13.6L22.6 16L18.4 18.4Z" fill="white"/>
<defs>
<filter id="filter0_di" x="0" y="0" width="40" height="40" filterUnits="userSpaceOnUse" color-interpolation-filters="sRGB">
<feFlood flood-opacity="0" result="BackgroundImageFix"/>
<feColorMatrix in="SourceAlpha" type="matrix" values="0 0 0 0 0 0 0 0 0 0 0 0 0 0 0 0 0 0 127 0" result="hardAlpha"/>
<feOffset dy="4"/>
<feGaussianBlur stdDeviation="2"/>
<feComposite in2="hardAlpha" operator="out"/>
<feColorMatrix type="matrix" values="0 0 0 0 0 0 0 0 0 0 0 0 0 0 0 0 0 0 0.25 0"/>
<feBlend mode="normal" in2="BackgroundImageFix" result="effect1_dropShadow"/>
<feBlend mode="normal" in="SourceGraphic" in2="effect1_dropShadow" result="shape"/>
<feColorMatrix in="SourceAlpha" type="matrix" values="0 0 0 0 0 0 0 0 0 0 0 0 0 0 0 0 0 0 127 0" result="hardAlpha"/>
<feOffset dy="4"/>
<feGaussianBlur stdDeviation="2"/>
<feComposite in2="hardAlpha" operator="arithmetic" k2="-1" k3="1"/>
<feColorMatrix type="matrix" values="0 0 0 0 0 0 0 0 0 0 0 0 0 0 0 0 0 0 0.25 0"/>
<feBlend mode="normal" in2="shape" result="effect2_innerShadow"/>
</filter>
<linearGradient id="paint0_linear" x1="9.5" y1="4" x2="32" y2="25" gradientUnits="userSpaceOnUse">
<stop stop-color="#FF0000"/>
<stop offset="1" stop-color="#FF0000" stop-opacity="0.42"/>
</linearGradient>
</defs>
</svg>
